<svg width="154" height="33" viewBox="0 0 154 33" fill="none" xmlns="http://www.w3.org/2000/svg">
<path d="M12.56 2.2V16.8C12.56 18.8267 12.3733 20.4667 12 21.72C11.6267 22.9733 10.96 23.92 10 24.56C9.06667 25.2 7.74667 25.52 6.04 25.52C4.22667 25.52 2.32 25.3467 0.32 25L0.92 20.4C1.66667 20.4267 2.52 20.4133 3.48 20.36C4.44 20.3067 4.98667 20.2 5.12 20.04C5.28 19.7733 5.36 19.1333 5.36 18.12C5.36 17.1067 5.36 16.5333 5.36 16.4V2.2H12.56ZM34.5322 6.6V25H28.9722L28.2122 21.92C26.2922 24.24 23.9989 25.4 21.3322 25.4C20.3722 25.4 19.4655 25.2667 18.6122 25C17.7855 24.7333 17.1589 24.3467 16.7322 23.84C16.4922 23.5467 16.3055 22.8133 16.1722 21.64C16.0655 20.4667 16.0122 18.68 16.0122 16.28V6.6H22.8522V16.2C22.8522 16.7333 22.8655 17.36 22.8922 18.08C22.9189 18.8 22.9989 19.2533 23.1322 19.44C23.3189 19.7067 23.8522 19.84 24.7322 19.84L25.3722 19.8C26.1189 19.7733 26.8922 19.6 27.6922 19.28V6.6H34.5322ZM55.6119 7.76C55.8519 8.05333 56.0252 8.78667 56.1319 9.96C56.2652 11.1333 56.3319 12.92 56.3319 15.32V25H49.4919V15.4V13.76C49.4919 12.9067 49.4252 12.3733 49.2919 12.16C49.0785 11.8933 48.5852 11.76 47.8119 11.76C47.4385 11.76 47.1585 11.7733 46.9719 11.8C46.2252 11.8267 45.4519 12 44.6519 12.32V25H37.8119V6.6H43.3719L44.1319 9.68C46.0519 7.36 48.3452 6.2 51.0119 6.2C51.9719 6.2 52.8652 6.33333 53.6919 6.6C54.5452 6.86667 55.1852 7.25333 55.6119 7.76ZM79.0516 25H71.6116L67.8116 17.52C67.4382 16.7467 66.9449 16.2533 66.3316 16.04V25H59.4916V0.999999L66.3316 0.719998V14.36C66.9716 14.0933 67.5182 13.5467 67.9716 12.72L71.3716 6.6L78.8516 6.56L74.9716 12.8C74.3582 13.7867 73.6916 14.5733 72.9716 15.16C73.5849 15.8267 74.2782 16.84 75.0516 18.2L79.0516 25ZM95.6672 12.96C97.4805 13.1733 98.7739 13.7867 99.5472 14.8C100.321 15.7867 100.707 16.9867 100.707 18.4C100.707 19.28 100.574 20.12 100.307 20.92C100.041 21.6933 99.7205 22.36 99.3472 22.92C98.9739 23.4533 98.6539 23.8 98.3872 23.96C97.3205 24.6533 94.0672 25 88.6272 25H80.8672V2.2H90.2672C92.4005 2.2 94.1205 2.32 95.4272 2.56C96.7605 2.77333 97.8405 3.28 98.6672 4.08C99.4939 4.85333 99.9072 6.04 99.9072 7.64C99.9072 9.02667 99.5605 10.1467 98.8672 11C98.2005 11.8533 97.1339 12.44 95.6672 12.76V12.96ZM92.4672 7.04C92.2005 6.77333 91.8805 6.61333 91.5072 6.56C91.1605 6.48 90.6005 6.44 89.8272 6.44C89.0539 6.44 88.4672 6.45333 88.0672 6.48V11.36H88.4672C88.6005 11.36 89.1605 11.36 90.1472 11.36C91.1339 11.36 91.7872 11.2933 92.1072 11.16C92.3472 11.0533 92.5605 10.7733 92.7472 10.32C92.9605 9.86667 93.0672 9.37333 93.0672 8.84C93.0672 8.04 92.8672 7.44 92.4672 7.04ZM93.1472 20.4C93.3339 20.24 93.4805 19.9467 93.5872 19.52C93.7205 19.0667 93.7872 18.6133 93.7872 18.16C93.7872 17.6 93.7072 17.08 93.5472 16.6C93.4139 16.0933 93.2272 15.7333 92.9872 15.52C92.7472 15.28 92.4005 15.12 91.9472 15.04C91.5205 14.96 90.7872 14.92 89.7472 14.92C89.0805 14.92 88.5205 14.9333 88.0672 14.96V20.76C89.3205 20.7867 90.4405 20.7733 91.4272 20.72C92.4139 20.64 92.9872 20.5333 93.1472 20.4ZM103.479 0.999999L110.319 0.719998V25H103.479V0.999999ZM122.59 25.52C119.39 25.52 116.99 24.7733 115.39 23.28C113.817 21.76 113.03 19.3733 113.03 16.12C113.03 14.3333 113.19 12.7733 113.51 11.44C113.857 10.08 114.27 9.13333 114.75 8.6C115.364 7.90667 116.484 7.33333 118.11 6.88C119.764 6.42667 121.31 6.2 122.75 6.2C126.19 6.2 128.644 6.93333 130.11 8.4C131.577 9.86667 132.31 12.2133 132.31 15.44C132.31 18.9067 131.524 21.4533 129.95 23.08C128.377 24.7067 125.924 25.52 122.59 25.52ZM122.71 20.84C123.75 20.84 124.43 20.48 124.75 19.76C125.07 19.0133 125.23 17.7067 125.23 15.84C125.23 14.5333 125.164 13.5333 125.03 12.84C124.897 12.12 124.644 11.6 124.27 11.28C123.924 10.9333 123.377 10.76 122.63 10.76C121.564 10.76 120.95 10.8533 120.79 11.04C120.577 11.2267 120.404 11.8133 120.27 12.8C120.137 13.7867 120.07 14.8133 120.07 15.88C120.07 17.6933 120.244 18.9733 120.59 19.72C120.964 20.4667 121.67 20.84 122.71 20.84ZM144.521 6.28C145.775 6.28 147.081 6.37333 148.441 6.56C149.801 6.72 151.388 6.94667 153.201 7.24V23.16C153.201 26.9733 151.935 29.9333 149.401 32.04C149.081 32.3067 148.361 32.5333 147.241 32.72C146.121 32.9067 144.855 33 143.441 33C140.375 33 137.948 32.6 136.161 31.8C136.135 31.2133 136.175 30.44 136.281 29.48C136.415 28.52 136.548 27.76 136.681 27.2C138.601 27.4933 140.481 27.64 142.321 27.64C143.255 27.64 144.041 27.5867 144.681 27.48C145.348 27.4 145.761 27.2667 145.921 27.08C146.135 26.8667 146.295 26.0667 146.401 24.68C146.428 24.3067 146.441 23.76 146.441 23.04V22.04C145.775 23.0267 144.921 23.7333 143.881 24.16C142.841 24.5867 141.908 24.8 141.081 24.8C138.841 24.8 137.148 24.0667 136.001 22.6C134.855 21.1333 134.281 18.9867 134.281 16.16C134.281 14.2933 134.535 12.5467 135.041 10.92C135.575 9.26667 136.295 8.12 137.201 7.48C137.788 7.08 138.735 6.78667 140.041 6.6C141.375 6.38667 142.868 6.28 144.521 6.28ZM143.681 19.8C144.668 19.8 145.561 19.64 146.361 19.32V10.96C146.068 10.9067 145.628 10.8533 145.041 10.8C144.775 10.7733 144.375 10.76 143.841 10.76C143.015 10.76 142.495 10.84 142.281 11C141.988 11.2133 141.748 11.8133 141.561 12.8C141.401 13.76 141.321 14.7733 141.321 15.84C141.321 17.3067 141.481 18.3333 141.801 18.92C142.148 19.5067 142.775 19.8 143.681 19.8Z" fill="#225BD9"/>
</svg>
